<?xml version="1.0" encoding="utf-8"?>
<!-- Generator: Adobe Illustrator 23.0.2, SVG Export Plug-In . SVG Version: 6.00 Build 0)  -->
<svg version="1.0" id="Layer_1" xmlns="http://www.w3.org/2000/svg" xmlns:xlink="http://www.w3.org/1999/xlink" x="0px" y="0px"
	 viewBox="0 0 382 382" enable-background="new 0 0 382 382" xml:space="preserve">
<path fill="#FFFFFF" d="M118.21,329.84c0,5.55-4.5,10.06-10.06,10.06H65.35c-5.55,0-10.06-4.5-10.06-10.06V150.4
	c0-5.55,4.5-10.06,10.06-10.06h42.81c5.55,0,10.06,4.5,10.06,10.06V329.84z"/>
<circle fill="#FFFFFF" cx="86.75" cy="82.77" r="40.67"/>
<path fill="#FFFFFF" d="M341.91,330.65c0,5.11-4.14,9.25-9.25,9.25h-45.93c-5.11,0-9.25-4.14-9.25-9.25v-84.17
	c0-12.56,3.68-55.02-32.81-55.02c-28.31,0-34.05,29.07-35.2,42.11v97.08c0,5.11-4.14,9.25-9.25,9.25H155.8
	c-5.11,0-9.25-4.14-9.25-9.25V149.59c0-5.11,4.14-9.25,9.25-9.25h44.43c5.11,0,9.25,4.14,9.25,9.25v15.65
	c10.5-15.75,26.1-27.91,59.31-27.91c73.55,0,73.13,68.72,73.13,106.47L341.91,330.65L341.91,330.65z"/>
</svg>
