<?xml version="1.0" encoding="utf-8"?>
<!-- Generator: Adobe Illustrator 23.0.2, SVG Export Plug-In . SVG Version: 6.00 Build 0)  -->
<svg version="1.0" id="Layer_1" xmlns="http://www.w3.org/2000/svg" xmlns:xlink="http://www.w3.org/1999/xlink" x="0px" y="0px"
	 viewBox="0 0 400 400" enable-background="new 0 0 400 400" xml:space="preserve">
<title>Twitter_Logo_White-on-Blue</title>
<g id="Logo_FIXED">
	<path fill="#FFFFFF" d="M153.62,301.59c94.34,0,145.94-78.16,145.94-145.94c0-2.22,0-4.43-0.15-6.63
		c10.04-7.26,18.7-16.25,25.59-26.55c-9.36,4.15-19.29,6.87-29.46,8.07c10.71-6.41,18.72-16.49,22.55-28.37
		c-10.07,5.97-21.08,10.19-32.57,12.45c-19.42-20.66-51.92-21.65-72.57-2.23c-13.32,12.53-18.97,31.19-14.84,49.01
		c-41.24-2.07-79.67-21.55-105.71-53.59c-13.61,23.44-6.66,53.42,15.88,68.47c-8.16-0.24-16.15-2.44-23.28-6.42
		c0,0.21,0,0.43,0,0.65c0.01,24.42,17.22,45.45,41.15,50.28c-7.55,2.06-15.47,2.36-23.16,0.88c6.72,20.89,25.98,35.21,47.92,35.62
		c-18.16,14.27-40.6,22.02-63.7,22c-4.08-0.01-8.16-0.25-12.21-0.74c23.46,15.05,50.75,23.04,78.62,23"/>
</g>
</svg>
